<svg width="103" height="56" fill="none" xmlns="http://www.w3.org/2000/svg"><path d="M1.85254 51.25c.30989 0 .54915.0889.71777.2666.16862.1732.25293.3919.25293.6563 0 .2597-.08431.4762-.25293.6494-.16862.1686-.40788.2529-.71777.2529-.29622 0-.53093-.0843-.7041-.2529-.17318-.1687-.25977-.3851-.25977-.6494 0-.2644.08431-.4831.25293-.6563.16862-.1777.4056-.2666.71094-.2666zm0-5.8037c.30989 0 .54915.0889.71777.2666.16862.1732.25293.3919.25293.6562 0 .2598-.08431.4763-.25293.6495-.16862.1686-.40788.2529-.71777.2529-.29622 0-.53093-.0843-.7041-.2529-.17318-.1687-.25977-.3851-.25977-.6495 0-.2643.08431-.483.25293-.6562.16862-.1777.4056-.2666.71094-.2666zM4.73047 53v-9.9531h2.93945c.87956 0 1.65886.1959 2.33788.5879.6836.3919 1.2123.9479 1.586 1.6679.3736.7201.5605 1.545.5605 2.4746v.4991c0 .9433-.1891 1.7728-.5674 2.4882-.3737.7155-.9092 1.267-1.60643 1.6543-.69271.3874-1.48796.5811-2.38574.5811H4.73047zm1.72949-8.5586v7.1777h1.12793c.9069 0 1.60189-.2825 2.08496-.8476.48765-.5697.73605-1.3854.74515-2.4473v-.5537c0-1.0801-.2347-1.9049-.70413-2.4746-.4694-.5697-1.15072-.8545-2.04395-.8545H6.45996zm10.51364 8.6953c-1.0527 0-1.9072-.3304-2.5634-.9912-.6517-.6654-.9776-1.5495-.9776-2.6523v-.2051c0-.7383.1413-1.3968.4238-1.9756.2872-.5833.6882-1.0368 1.2032-1.3604.5149-.3235 1.0892-.4853 1.7226-.4853 1.0072 0 1.7842.3213 2.3311.9639.5514.6425.8271 1.5517.8271 2.7275v.6699h-4.833c.0502.6107.253 1.0938.6084 1.4492.36.3555.8112.5332 1.3535.5332.7611 0 1.3809-.3076 1.8594-.9228l.8955.8545c-.2962.442-.6927.7861-1.1894 1.0322-.4922.2416-1.0459.3623-1.6612.3623zm-.1982-6.3369c-.4557 0-.8249.1595-1.1074.4785-.278.319-.4558.7634-.5332 1.333h3.165v-.123c-.0365-.556-.1846-.9753-.4443-1.2578-.2598-.2871-.6198-.4307-1.0801-.4307zm6.0019-1.1963l.0479.8545c.5469-.6608 1.2646-.9912 2.1533-.9912 1.5404 0 2.3242.8818 2.3516 2.6455V53h-1.6612v-4.792c0-.4694-.1025-.8157-.3076-1.0391-.2005-.2278-.5309-.3418-.9912-.3418-.6699 0-1.1689.3031-1.4971.9092V53h-1.6611v-7.3965h1.5654zm8.3331-1.7978v1.7978h1.3056v1.2305h-1.3056v4.1289c0 .2825.0546.4876.164.6152.1139.1231.3145.1846.6016.1846.1914 0 .3851-.0228.581-.0684v1.2852c-.3782.1048-.7428.1572-1.0937.1572-1.2761 0-1.9141-.7041-1.9141-2.1123V46.834h-1.2168v-1.2305h1.2168v-1.7978h1.6612zm7 9.1943c-.073-.1413-.1368-.3714-.1915-.6904-.5286.5514-1.1757.8271-1.9414.8271-.7428 0-1.3489-.2119-1.8183-.6357-.4694-.4239-.7041-.9479-.7041-1.5723 0-.7884.2916-1.3922.875-1.8115.5879-.4238 1.4264-.6358 2.5156-.6358h1.0186v-.4853c0-.3828-.1071-.6882-.3213-.916-.2142-.2324-.5401-.3487-.9776-.3487-.3782 0-.6881.0957-.9297.2872-.2415.1868-.3623.4261-.3623.7177h-1.6611c0-.4056.1344-.7838.4033-1.1347.2689-.3555.6335-.6335 1.0938-.834.4648-.2005.9821-.3008 1.5517-.3008.8659 0 1.5563.2187 2.0713.6562.515.433.7793 1.0437.793 1.8321v3.3359c0 .6654.0934 1.1963.2803 1.5928V53h-1.6953zm-1.8252-1.1963c.3281 0 .6357-.0797.9228-.2392.2917-.1596.5104-.3737.6563-.6426v-1.3946h-.8955c-.6153 0-1.0778.1071-1.3877.3213-.3099.2142-.4649.5173-.4649.9092 0 .319.1048.5742.3145.7656.2142.1869.499.2803.8545.2803zM43.0322 53h-1.6611V42.5h1.6611V53zm6.3028-1.75c.3099 0 .5491.0889.7177.2666.1687.1732.253.3919.253.6563 0 .2597-.0843.4762-.253.6494-.1686.1686-.4078.2529-.7177.2529-.2963 0-.531-.0843-.7041-.2529-.1732-.1687-.2598-.3851-.2598-.6494 0-.2644.0843-.4831.2529-.6563.1686-.1777.4056-.2666.711-.2666zm0-5.8037c.3099 0 .5491.0889.7177.2666.1687.1732.253.3919.253.6562 0 .2598-.0843.4763-.253.6495-.1686.1686-.4078.2529-.7177.2529-.2963 0-.531-.0843-.7041-.2529-.1732-.1687-.2598-.3851-.2598-.6495 0-.2643.0843-.483.2529-.6562.1686-.1777.4056-.2666.711-.2666zm4.6074 3.8555V53h-1.7295v-9.9531h3.8076c1.112 0 1.9938.2894 2.6455.8681.6563.5788.9844 1.3444.9844 2.2969 0 .9753-.3213 1.7341-.9639 2.2764-.638.5423-1.5335.8135-2.6865.8135h-2.0576zm0-1.3877h2.0781c.6152 0 1.0846-.1436 1.4082-.4307.3236-.2917.4854-.7109.4854-1.2578 0-.5378-.1641-.9662-.4922-1.2852-.3281-.3235-.7793-.4899-1.3535-.499h-2.126v3.4727zm10.9375-.793c-.2188-.0365-.4444-.0547-.6768-.0547-.761 0-1.2737.2917-1.5381.875V53h-1.6611v-7.3965h1.5859l.0411.8272c.401-.6426.957-.9639 1.6679-.9639.237 0 .433.0319.5879.0957l-.0068 1.5586zM70.1436 53c-.073-.1413-.1368-.3714-.1915-.6904-.5286.5514-1.1757.8271-1.9414.8271-.7428 0-1.3489-.2119-1.8183-.6357-.4694-.4239-.7041-.9479-.7041-1.5723 0-.7884.2916-1.3922.875-1.8115.5879-.4238 1.4264-.6358 2.5156-.6358h1.0186v-.4853c0-.3828-.1071-.6882-.3213-.916-.2142-.2324-.5401-.3487-.9776-.3487-.3782 0-.6881.0957-.9297.2872-.2415.1868-.3623.4261-.3623.7177h-1.6611c0-.4056.1344-.7838.4033-1.1347.2689-.3555.6335-.6335 1.0938-.834.4648-.2005.9821-.3008 1.5517-.3008.8659 0 1.5564.2187 2.0713.6562.515.433.7793 1.0437.793 1.8321v3.3359c0 .6654.0934 1.1963.2803 1.5928V53h-1.6953zm-1.8252-1.1963c.3281 0 .6357-.0797.9228-.2392.2917-.1596.5104-.3737.6563-.6426v-1.3946h-.8955c-.6153 0-1.0778.1071-1.3877.3213-.3099.2142-.4649.5173-.4649.9092 0 .319.1048.5742.3145.7656.2142.1869.499.2803.8545.2803zm8.0185.0068c.4147 0 .7588-.1207 1.0322-.3623.2735-.2415.4193-.54.4375-.8955h1.5655c-.0183.4603-.1618.891-.4307 1.292-.2689.3965-.6335.711-1.0937.9434-.4603.2324-.9571.3486-1.4903.3486-1.0345 0-1.8548-.3349-2.4609-1.0049-.6061-.6699-.9092-1.595-.9092-2.7754v-.1709c0-1.1256.3008-2.0257.9023-2.7001.6016-.6791 1.4219-1.0186 2.461-1.0186.8795 0 1.595.2575 2.1465.7725.556.5104.8476 1.1826.875 2.0166h-1.5655c-.0182-.4239-.164-.7725-.4375-1.0459-.2688-.2735-.6129-.4102-1.0322-.4102-.5377 0-.9525.196-1.2441.5879-.2917.3874-.4398.9775-.4444 1.7705v.2666c0 .8021.1436 1.4014.4307 1.7979.2917.3919.7109.5878 1.2578.5878zm6.3711-8.0048v1.7978h1.3057v1.2305H82.708v4.1289c0 .2825.0547.4876.1641.6152.1139.1231.3144.1846.6015.1846.1914 0 .3851-.0228.5811-.0684v1.2852c-.3783.1048-.7429.1572-1.0938.1572-1.276 0-1.914-.7041-1.914-2.1123V46.834h-1.2168v-1.2305h1.2168v-1.7978h1.6611zM87.0557 53h-1.6612v-7.3965h1.6612V53zm-1.7637-9.3174c0-.2552.0797-.4671.2392-.6357.1641-.1686.3965-.253.6973-.253s.5332.0844.6973.253c.164.1686.2461.3805.2461.6357 0 .2507-.0821.4603-.2461.6289-.1641.1641-.3965.2461-.6973.2461s-.5332-.082-.6973-.2461c-.1595-.1686-.2392-.3782-.2392-.6289zm6.6172 8.1279c.4147 0 .7588-.1207 1.0322-.3623.2734-.2415.4193-.54.4375-.8955h1.5654c-.0182.4603-.1617.891-.4306 1.292-.2689.3965-.6335.711-1.0938.9434-.4603.2324-.957.3486-1.4902.3486-1.0345 0-1.8548-.3349-2.4609-1.0049-.6062-.6699-.9092-1.595-.9092-2.7754v-.1709c0-1.1256.3008-2.0257.9023-2.7001.6016-.6791 1.4219-1.0186 2.461-1.0186.8795 0 1.595.2575 2.1464.7725.556.5104.8477 1.1826.875 2.0166h-1.5654c-.0182-.4239-.1641-.7725-.4375-1.0459-.2689-.2735-.6129-.4102-1.0322-.4102-.5378 0-.9525.196-1.2442.5879-.2916.3874-.4397.9775-.4443 1.7705v.2666c0 .8021.1436 1.4014.4307 1.7979.2916.3919.7109.5878 1.2578.5878zm7.5469 1.3262c-1.0528 0-1.9073-.3304-2.5635-.9912-.6517-.6654-.9776-1.5495-.9776-2.6523v-.2051c0-.7383.1413-1.3968.4239-1.9756.2871-.5833.6881-1.0368 1.2031-1.3604.515-.3235 1.0892-.4853 1.7226-.4853 1.0074 0 1.7844.3213 2.3314.9639.551.6425.827 1.5517.827 2.7275v.6699h-4.8332c.0502.6107.253 1.0938.6084 1.4492.3601.3555.8112.5332 1.3536.5332.7612 0 1.3812-.3076 1.8592-.9228l.896.8545c-.297.442-.693.7861-1.19 1.0322-.492.2416-1.046.3623-1.6609.3623zm-.1983-6.3369c-.4557 0-.8249.1595-1.1074.4785-.278.319-.4557.7634-.5332 1.333h3.1648v-.123c-.036-.556-.184-.9753-.444-1.2578-.26-.2871-.6199-.4307-1.0802-.4307z" fill="#0055B8"/><g filter="url(#filter0_d)"><path d="M23.5 4.76367c0 .79688-.2285 1.41211-.6855 1.8457-.4454.4336-1.0079.65039-1.6875.65039-.668 0-1.2247-.21679-1.67-.65039-.4336-.43359-.6504-1.04882-.6504-1.8457 0-.76172.2168-1.36523.6504-1.81055.4336-.44531.9903-.66797 1.67-.66797.6796 0 1.2421.2168 1.6875.6504.457.43359.6855 1.04296.6855 1.82812zm14.9238 0c0 .79688-.2285 1.41211-.6855 1.8457-.4453.4336-1.0078.65039-1.6875.65039-.668 0-1.2246-.21679-1.6699-.65039-.4336-.43359-.6504-1.04882-.6504-1.8457 0-.76172.2168-1.36523.6504-1.81055.4336-.44531.9902-.66796 1.6699-.66796s1.2422.21679 1.6875.65039c.457.43359.6855 1.04297.6855 1.82812zM19 12.1641h25.5937v7.5586c0 2.2617-.5039 4.2656-1.5117 6.0117-1.0078 1.7578-2.4375 3.1172-4.289 4.0781-1.8516.9609-3.9727 1.4414-6.3633 1.4414h-1.2832c-2.4258 0-4.5586-.4863-6.3985-1.459-1.8398-.9609-3.2578-2.3379-4.2539-4.1308C19.498 23.8828 19 21.8379 19 19.5293v-7.3652zm22.0078 4.4472h-18.457v2.9004c0 2.332.7265 4.1192 2.1797 5.3613 1.4648 1.254 3.5625 1.8926 6.2929 1.9161h1.4239c2.7773 0 4.8984-.6036 6.3632-1.8106 1.4649-1.207 2.1973-2.959 2.1973-5.2558v-3.1114z" fill="#FFD600"/></g><g filter="url(#filter1_d)"><path d="M65.5 5.26367c0 .79688-.2285 1.41211-.6855 1.8457-.4454.4336-1.0079.65039-1.6875.65039-.668 0-1.2247-.21679-1.67-.65039-.4336-.43359-.6504-1.04882-.6504-1.8457 0-.76172.2168-1.36523.6504-1.81055.4336-.44531.9903-.66797 1.67-.66797.6796 0 1.2421.2168 1.6875.6504.457.43359.6855 1.04296.6855 1.82812zm14.9238 0c0 .79688-.2285 1.41211-.6855 1.8457-.4453.4336-1.0078.65039-1.6875.65039-.668 0-1.2246-.21679-1.6699-.65039-.4336-.43359-.6504-1.04882-.6504-1.8457 0-.76172.2168-1.36523.6504-1.81055.4336-.44531.9902-.66796 1.6699-.66796s1.2422.21679 1.6875.65039c.457.43359.6855 1.04297.6855 1.82812zm-9.914 11.84763H61v-4.4472h25.5937v9.791c0 2.8594-.7441 5.1269-2.2324 6.8027-1.4883 1.6875-3.457 2.5313-5.9062 2.5313-2.5078 0-4.459-.8262-5.8535-2.4786-1.3946-1.6406-2.0918-3.9433-2.0918-6.9082v-5.291zm3.5683 0v5.3438c0 1.582.3692 2.789 1.1074 3.6211.75.832 1.8282 1.248 3.2344 1.248 1.3828 0 2.4844-.4219 3.3047-1.2656.832-.8438 1.2598-2.0039 1.2832-3.4805v-5.4668h-8.9297z" fill="#FFD600"/></g><defs><filter id="filter0_d" x="16.8066" y=".28516" width="31.7871" height="34.9688" filterUnits="userSpaceOnUse" color-interpolation-filters="sRGB"><feFlood flood-opacity="0" result="BackgroundImageFix"/><feColorMatrix in="SourceAlpha" values="0 0 0 0 0 0 0 0 0 0 0 0 0 0 0 0 0 0 127 0"/><feOffset dx="1" dy="1"/><feGaussianBlur stdDeviation="1.5"/><feColorMatrix values="0 0 0 0 0.554167 0 0 0 0 0.43225 0 0 0 0 0 0 0 0 0.25 0"/><feBlend in2="BackgroundImageFix" result="effect1_dropShadow"/><feBlend in="SourceGraphic" in2="effect1_dropShadow" result="shape"/></filter><filter id="filter1_d" x="58.8066" y=".78516" width="31.7871" height="35.0039" filterUnits="userSpaceOnUse" color-interpolation-filters="sRGB"><feFlood flood-opacity="0" result="BackgroundImageFix"/><feColorMatrix in="SourceAlpha" values="0 0 0 0 0 0 0 0 0 0 0 0 0 0 0 0 0 0 127 0"/><feOffset dx="1" dy="1"/><feGaussianBlur stdDeviation="1.5"/><feColorMatrix values="0 0 0 0 0.554167 0 0 0 0 0.43225 0 0 0 0 0 0 0 0 0.25 0"/><feBlend in2="BackgroundImageFix" result="effect1_dropShadow"/><feBlend in="SourceGraphic" in2="effect1_dropShadow" result="shape"/></filter></defs></svg>