<svg width="262" height="94" fill="none" xmlns="http://www.w3.org/2000/svg"><path d="M.3252 83.9863c0-2.9199.9733-5.2897 2.91992-7.1093 1.98893-1.8197 4.46452-2.7295 7.42678-2.7295 3.0045 0 5.4801.9098 7.4267 2.7295 1.989 1.8196 2.9834 4.1894 2.9834 7.1093 0 2.8776-.9733 5.2263-2.9199 7.0459-1.9466 1.7774-4.4433 2.666-7.4902 2.666-3.00458 0-5.48017-.8886-7.42678-2.666C1.2985 89.2126.32519 86.8639.32519 83.9863zm0-51.9873c0-2.9199.9733-5.2897 2.91992-7.1094 1.98893-1.8196 4.46452-2.7294 7.42678-2.7294 3.0045 0 5.4801.9098 7.4267 2.7294 1.989 1.8197 2.9834 4.1895 2.9834 7.1094 0 2.8776-.9733 5.2263-2.9199 7.0459-1.9466 1.7774-4.4433 2.666-7.4902 2.666-3.00458 0-5.48017-.8886-7.42678-2.666C1.2985 37.2253.32519 34.8766.32519 31.999zM37.332 93V.57812h28.4375c8.125 0 15.3825 1.84083 21.7725 5.52247 6.4323 3.63932 11.4469 8.84441 15.044 15.61521 3.597 6.7285 5.395 14.388 5.395 22.9785v4.253c0 8.5905-1.777 16.2288-5.332 22.915-3.512 6.6862-8.4843 11.8701-14.9166 15.5518C81.3001 91.0957 74.0426 92.9577 65.96 93H37.332zm19.043-76.9971v61.6992h9.2041c7.4479 0 13.1397-2.4332 17.0752-7.2998 3.9355-4.8665 5.9456-11.8278 6.0303-20.8837v-4.8877c0-9.3946-1.9466-16.5039-5.8399-21.3282-3.8932-4.8665-9.5849-7.2998-17.0752-7.2998H56.375zm97.563 67.9834c0-2.9199.974-5.2897 2.92-7.1093 1.989-1.8197 4.465-2.7295 7.427-2.7295 3.005 0 5.48.9098 7.427 2.7295 1.989 1.8196 2.983 4.1894 2.983 7.1093 0 2.8776-.973 5.2263-2.92 7.0459-1.946 1.7774-4.443 2.666-7.49 2.666-3.004 0-5.48-.8886-7.427-2.666-1.946-1.8196-2.92-4.1683-2.92-7.0459zm0-51.9873c0-2.9199.974-5.2897 2.92-7.1094 1.989-1.8196 4.465-2.7294 7.427-2.7294 3.005 0 5.48.9098 7.427 2.7294 1.989 1.8197 2.983 4.1895 2.983 7.1094 0 2.8776-.973 5.2263-2.92 7.0459-1.946 1.7774-4.443 2.666-7.49 2.666-3.004 0-5.48-.8886-7.427-2.666-1.946-1.8196-2.92-4.1683-2.92-7.0459zm56.05 28.4375V93h-19.043V.57812H227c6.94 0 13.034 1.26954 18.281 3.8086 5.29 2.53906 9.352 6.15718 12.188 10.85448 2.835 4.655 4.253 9.9658 4.253 15.9326 0 9.056-3.111 16.2077-9.331 21.4551-6.179 5.2051-14.748 7.8076-25.708 7.8076h-16.695zm0-15.4248H227c5.036 0 8.866-1.1849 11.489-3.5547 2.666-2.3698 3.999-5.7552 3.999-10.1562 0-4.528-1.333-8.1885-3.999-10.9815-2.666-2.7929-6.347-4.2317-11.045-4.3164h-17.456v29.0088z" fill="#000" fill-opacity=".05"/></svg>